<?xml version="1.0" standalone="no"?>
<!DOCTYPE svg PUBLIC "-//W3C//DTD SVG 20010904//EN"
 "http://www.w3.org/TR/2001/REC-SVG-20010904/DTD/svg10.dtd">
<svg version="1.0" xmlns="http://www.w3.org/2000/svg"
 width="600.000000pt" height="600.000000pt" viewBox="0 0 600.000000 600.000000"
 preserveAspectRatio="xMidYMid meet">
<metadata>
Created by potrace 1.11, written by Peter Selinger 2001-2013
</metadata>
<g transform="translate(0.000000,600.000000) scale(0.100000,-0.100000)"
fill="#000000" stroke="none">
<path d="M3276 5955 c-18 -27 -27 -59 -31 -112 -2 -21 -4 -38 -5 -38 -1 0 -3
-12 -5 -27 -3 -22 1 -28 23 -32 15 -4 37 -4 50 -2 18 4 22 0 22 -20 0 -14 9
-42 20 -63 10 -21 17 -41 14 -43 -2 -3 7 -13 21 -22 14 -9 25 -23 25 -32 0
-13 39 -68 85 -120 21 -24 149 -219 146 -223 -1 -2 1 -7 6 -10 5 -3 24 -31 43
-61 19 -30 57 -79 83 -108 26 -29 58 -74 70 -100 12 -25 29 -54 37 -63 8 -9
26 -31 40 -49 14 -17 30 -37 35 -44 6 -6 39 -51 75 -101 35 -49 67 -92 70 -95
20 -17 49 -64 44 -71 -3 -5 -1 -9 5 -9 5 0 40 -44 77 -97 37 -54 70 -100 73
-103 11 -9 108 -155 125 -188 l17 -33 -93 5 c-84 6 -174 13 -283 22 -48 4
-299 12 -635 19 -135 3 -283 8 -330 11 -83 5 -220 6 -950 6 -201 0 -507 0
-680 1 -173 0 -400 -3 -505 -7 -104 -4 -236 -9 -293 -11 -56 -3 -112 -9 -123
-15 -11 -6 -33 -31 -48 -56 l-28 -44 -2 -877 c-1 -870 -3 -979 -17 -1163 -4
-52 -8 -119 -8 -147 -1 -29 -3 -53 -7 -53 -7 0 -8 -25 -7 -215 0 -437 -11
-749 -29 -778 -13 -21 -9 -93 6 -119 14 -26 46 -42 101 -53 12 -2 28 -9 36
-16 8 -6 22 -8 31 -4 22 8 58 16 94 18 41 3 24 11 -29 14 -96 6 -173 33 -144
52 20 12 30 74 17 111 -12 36 -12 693 -1 828 23 259 29 425 31 927 1 281 5
530 9 555 11 75 15 122 15 195 1 77 -6 577 -8 585 -1 3 -6 -2 -11 -10 -5 -8
-10 -10 -10 -4 0 16 41 138 49 144 3 3 12 16 19 30 19 37 59 63 95 62 73 -2
216 0 267 3 324 19 1547 32 1955 20 61 -2 232 -6 380 -9 401 -10 586 -16 625
-21 19 -3 81 -7 138 -10 57 -3 111 -9 121 -15 10 -5 135 -12 277 -15 399 -9
735 -21 814 -30 14 -1 33 -3 42 -4 9 0 23 -13 30 -29 18 -34 22 -132 7 -152
-8 -12 -10 -9 -6 14 4 22 -2 36 -25 59 -16 17 -37 32 -46 34 -26 5 -281 3
-332 -3 -57 -6 -422 -11 -433 -6 -5 2 -46 6 -93 8 -46 2 -88 5 -92 6 -4 1 -16
-1 -27 -5 -27 -9 -77 -108 -64 -128 5 -8 7 -140 3 -309 -2 -162 -7 -414 -10
-560 -2 -146 -6 -344 -8 -440 -3 -96 -7 -299 -11 -450 -5 -264 -7 -276 -27
-293 -20 -17 -20 -18 -3 -31 16 -12 18 -36 21 -242 2 -126 5 -238 7 -249 19
-110 19 -126 1 -146 -16 -18 -16 -19 2 -19 17 0 19 -7 18 -62 -1 -35 -5 -92
-9 -128 -10 -74 -10 -123 -2 -144 14 -36 133 -49 447 -50 220 -1 309 4 506 27
42 5 68 31 100 101 23 51 26 67 21 122 -6 56 -4 64 11 64 15 1 15 2 -2 15 -16
12 -20 29 -22 85 -1 38 -6 75 -10 81 -5 9 -1 10 14 7 15 -4 22 -2 22 8 0 8 -5
14 -11 14 -7 0 -9 8 -4 23 23 77 28 117 39 385 7 160 11 88 12 -216 1 -169 2
-357 4 -417 2 -75 -1 -119 -10 -134 -7 -13 -22 -58 -34 -99 -19 -67 -24 -76
-46 -78 -14 -1 -61 -5 -105 -8 -44 -3 -109 -8 -145 -11 -36 -3 -90 -8 -120
-10 -30 -2 -79 -7 -107 -10 -29 -3 -78 -8 -110 -10 -32 -2 -94 -7 -138 -11
-278 -24 -420 -27 -1255 -26 -470 1 -918 2 -995 2 -77 1 -241 0 -365 -1 -201
-2 -544 5 -825 16 -178 7 -375 9 -380 3 -3 -3 16 -6 42 -7 26 -1 62 -4 78 -7
17 -2 107 -7 200 -9 94 -3 193 -7 220 -10 28 -3 133 -7 235 -10 189 -4 206 -6
269 -26 20 -7 71 -13 113 -13 42 -1 79 -4 83 -7 6 -7 -263 -3 -435 5 -150 8
-290 16 -355 21 -59 5 -98 8 -300 20 -55 3 -121 8 -146 10 -43 5 -47 3 -53
-20 -4 -14 -11 -25 -17 -25 -13 0 9 -41 31 -57 9 -6 24 -31 34 -55 10 -24 25
-59 34 -78 l17 -35 80 4 c242 12 709 4 840 -14 46 -6 150 -13 285 -20 52 -3
133 -8 180 -11 230 -14 2577 -24 2680 -11 36 5 81 11 100 14 37 5 59 6 75 3
46 -10 65 1 91 51 14 29 27 61 30 72 5 30 17 38 55 39 37 0 69 -6 139 -26 76
-23 138 14 155 91 2 10 10 41 17 68 8 28 15 96 17 150 1 55 7 107 11 116 13
23 18 58 37 229 12 115 -4 1232 -22 1580 -5 86 -16 425 -17 485 0 22 3 105 8
185 15 307 5 583 -27 686 -8 26 -19 35 -67 52 -55 20 -86 24 -162 21 -19 -1
-69 -1 -110 0 -41 0 -187 3 -325 5 -137 2 -253 4 -257 5 -4 0 4 25 16 54 42
94 54 168 61 387 2 85 5 157 6 160 0 3 0 43 -1 90 -5 170 -2 231 12 245 3 4 3
21 0 38 -17 80 4 407 33 532 8 34 11 79 8 99 -5 31 -2 40 16 52 43 31 89 124
61 124 -6 0 -16 11 -22 25 -27 59 -128 11 -164 -77 -23 -57 -20 -84 15 -123
21 -23 20 -40 -5 -207 -4 -24 -7 -58 -8 -75 -1 -18 -3 -33 -6 -33 -3 0 -5 -12
-6 -27 0 -16 -4 -84 -8 -153 -5 -69 -10 -145 -11 -170 -5 -72 -14 -200 -20
-265 -3 -33 -8 -82 -10 -110 -2 -27 -6 -68 -9 -90 -2 -22 -7 -65 -10 -95 -15
-141 -19 -176 -21 -195 -2 -11 -4 -26 -4 -34 -1 -7 -16 4 -35 25 -19 22 -48
55 -65 74 -18 19 -44 55 -59 80 -14 25 -30 46 -34 48 -7 3 -133 192 -178 267
-13 22 -37 54 -53 70 -16 17 -47 57 -69 90 -23 33 -71 92 -107 130 -36 39 -75
82 -86 95 -29 37 -125 177 -125 184 0 9 -130 198 -170 246 -20 25 -35 50 -33
56 2 7 -7 28 -21 48 -34 50 -43 96 -23 111 23 17 35 54 31 100 -4 47 -23 97
-34 90 -4 -3 -13 2 -20 10 -8 9 -31 14 -70 14 -50 -1 -61 -4 -74 -24z m1991
-2080 c8 -45 1 -1035 -7 -1080 -2 -6 -1 -13 0 -17 2 -10 2 -75 0 -85 -1 -5 -1
-26 0 -48 6 -132 6 -206 -1 -211 -4 -2 -140 -7 -301 -9 -161 -3 -376 -7 -478
-10 l-185 -4 2 362 c2 199 3 373 4 387 0 14 -2 57 -5 95 -14 174 -19 246 -20
333 -1 50 1 92 4 92 3 0 6 15 6 33 2 42 9 69 28 105 22 42 36 44 386 57 136 5
241 13 248 20 1 1 73 2 159 1 148 -1 156 -2 160 -21z m93 -130 c0 -13 11 -36
26 -52 25 -27 25 -28 19 -149 -3 -67 -8 -133 -12 -146 -3 -12 -7 -180 -8 -373
-1 -192 -5 -363 -8 -380 -3 -16 -7 -54 -8 -82 -3 -74 -14 -66 -15 10 -1 35 -9
77 -17 93 -27 52 -39 431 -23 674 4 52 9 147 12 210 2 63 7 131 10 150 3 19 5
45 5 58 -1 13 4 20 9 17 6 -3 10 -17 10 -30z m4 -1270 c-2 -14 -6 -68 -8 -121
-2 -52 -5 -97 -8 -99 -3 -3 -4 28 -3 67 2 40 3 97 4 126 0 28 5 52 10 52 5 0
8 -11 5 -25z m-106 -90 c23 -9 4 -22 -25 -18 -25 3 -136 12 -173 13 -12 0 -12
2 -2 8 13 9 177 6 200 -3z m-2 -112 c-6 -6 -24 -7 -189 -3 -134 3 -157 14 -47
23 92 8 139 16 161 28 11 5 23 8 27 6 4 -3 16 -1 27 3 17 6 21 2 23 -22 2 -17
1 -32 -2 -35z m-753 3 c160 2 182 0 105 -6 -54 -4 -115 -11 -135 -15 -21 -5
-51 -9 -68 -11 -16 -1 -49 -6 -72 -10 l-43 -7 1 34 c0 19 3 29 5 23 3 -7 69
-10 207 -8z m427 4 c0 -5 -4 -10 -10 -10 -5 0 -10 5 -10 10 0 6 5 10 10 10 6
0 10 -4 10 -10z m-187 -7 c-7 -2 -19 -2 -25 0 -7 3 -2 5 12 5 14 0 19 -2 13
-5z m154 1 c-3 -3 -12 -4 -19 -1 -8 3 -5 6 6 6 11 1 17 -2 13 -5z m458 -44
c-4 -6 -6 -55 -6 -110 1 -54 -3 -101 -8 -104 -21 -13 -23 182 -2 208 15 18 26
22 16 6z m-100 -12 c6 -3 10 -23 10 -45 l-1 -38 -69 0 c-39 0 -75 4 -82 8 -6
4 -56 8 -110 9 -54 0 -102 4 -108 8 -5 4 -19 9 -29 11 -24 5 -23 22 1 25 9 2
53 5 97 9 199 14 241 17 243 19 5 5 38 0 48 -6z m-557 -44 c-10 -10 -68 -15
-68 -6 0 4 17 9 37 10 21 2 34 0 31 -4z m-348 -16 c0 -4 7 -5 15 -2 8 4 15 2
15 -3 0 -4 -21 -9 -46 -10 -36 -2 -44 0 -36 10 12 14 52 18 52 5z m828 -52
c45 0 83 -2 83 -5 1 -4 3 -21 5 -39 l4 -32 -58 5 c-31 2 -97 7 -147 11 -49 4
-97 8 -105 9 -8 1 -22 15 -31 32 l-17 31 91 -6 c51 -3 129 -5 175 -6z m-288
-11 c17 -20 -7 -20 -34 0 -19 15 -19 15 1 15 11 0 26 -7 33 -15z m-390 -6
c117 -1 123 -2 92 -15 -21 -9 -82 -16 -172 -18 -130 -4 -140 -3 -140 14 0 22
10 26 58 23 20 -1 93 -3 162 -4z m259 -13 c-9 -9 -80 -13 -85 -5 -3 5 16 9 42
9 26 0 45 -2 43 -4z m499 -69 c11 -7 11 -25 0 -43 -7 -11 -37 -11 -197 -1 -60
4 -80 15 -81 43 0 12 258 12 278 1z m-895 -21 c7 8 165 10 184 3 24 -9 -26
-17 -134 -23 -53 -3 -91 -11 -108 -22 -14 -9 -26 -14 -26 -10 -5 24 -4 33 9
48 10 12 20 14 42 8 16 -4 31 -6 33 -4z m980 -124 c2 -73 0 -132 -4 -132 -9 0
-24 84 -21 120 1 14 4 52 6 85 5 70 5 70 11 64 2 -3 6 -65 8 -137z m-515 122
c12 -4 22 -10 22 -15 0 -5 -10 -5 -22 0 -13 4 -40 6 -62 3 -27 -3 -37 -1 -32
7 8 12 57 14 94 5z m398 -64 l32 0 -3 -52 c-2 -29 -4 -82 -4 -118 l-1 -66 -75
1 c-74 0 -75 0 -81 29 -6 27 -8 28 -19 13 -12 -16 -13 -16 -18 2 -5 21 23 38
42 26 5 -3 12 -1 16 5 6 9 -21 15 -52 11 -14 -2 -20 24 -15 60 3 19 10 27 25
27 57 2 78 5 68 11 -5 4 -33 6 -60 5 -43 -2 -51 1 -57 18 -9 30 7 35 94 31 42
-2 91 -3 108 -3z m-702 -31 c-18 -17 -36 -21 -115 -24 -52 -2 -101 -5 -109 -7
-17 -3 -20 2 -20 32 0 19 7 20 132 20 l132 0 -20 -21z m163 15 c-8 -8 -48 -13
-43 -6 2 4 14 8 26 9 12 1 20 0 17 -3z m267 0 c14 -3 26 -11 26 -16 0 -7 -39
-8 -112 -4 -134 7 -130 6 -98 15 34 10 152 13 184 5z m-447 -91 c6 -18 -11
-23 -108 -29 -51 -3 -96 -7 -100 -10 -19 -11 -20 21 -2 36 16 13 41 16 114 15
59 0 94 -5 96 -12z m-32 -72 c6 -1 10 -12 10 -26 0 -24 -3 -25 -57 -25 -69 0
-78 -16 -11 -19 53 -2 56 -3 58 -31 1 -12 -5 -20 -14 -21 -58 -2 -120 -10
-145 -19 -22 -8 -32 -7 -38 2 -11 17 -7 117 4 125 5 3 35 7 66 10 31 3 58 6
59 7 2 1 24 0 68 -3z m175 1 c0 -5 -7 -9 -15 -9 -8 0 -12 4 -9 9 3 4 9 8 15 8
5 0 9 -4 9 -8z m602 -100 c-4 -28 -5 -29 -73 -29 -38 0 -70 3 -70 8 -1 5 -2
15 -3 22 -1 11 31 18 115 25 34 2 35 1 31 -26z m-224 -12 c-3 -15 -49 -16
-278 -6 -47 2 -101 5 -120 6 -29 1 -31 3 -15 10 11 4 109 7 218 7 169 -2 197
-4 195 -17z m220 -77 l-3 -48 -70 0 c-75 0 -78 2 -65 55 7 27 33 37 103 39
l38 1 -3 -47z m-774 2 c7 -19 -7 -30 -39 -31 -16 -1 -51 -5 -77 -8 -50 -7 -92
6 -86 26 2 6 30 12 61 13 32 1 59 4 61 6 10 10 75 5 80 -6z m82 0 c-10 -7 -15
-18 -11 -24 3 -6 1 -11 -4 -11 -6 0 -11 11 -11 25 0 19 5 25 23 25 21 -1 21
-1 3 -15z m484 -36 c0 -10 -5 -11 -86 -15 -33 -1 -67 2 -75 7 -10 6 -8 9 11
10 40 1 114 10 118 14 7 6 32 -7 32 -16z m-560 -74 c0 -23 -2 -23 -102 -21
-84 1 -103 4 -103 16 0 18 36 25 133 27 69 1 72 1 72 -22z m754 -9 c-13 -10
-76 -13 -127 -7 -20 2 5 18 30 19 15 1 42 5 58 10 37 11 64 -4 39 -22z m-388
-8 c4 -4 -60 -7 -142 -7 -82 1 -141 4 -132 7 23 9 265 9 274 0z m194 2 c0 -5
-9 -10 -21 -10 -11 0 -17 5 -14 10 3 6 13 10 21 10 8 0 14 -4 14 -10z m194
-77 c-3 -27 -7 -50 -10 -52 -4 -4 -85 -3 -119 3 -20 3 -23 15 -10 53 5 15 20
24 53 31 91 19 92 18 86 -35z m-784 19 c0 -9 -107 -9 -116 1 -4 4 20 7 54 7
34 0 62 -4 62 -8z m120 -2 c0 -5 -2 -10 -4 -10 -3 0 -8 5 -11 10 -3 6 -1 10 4
10 6 0 11 -4 11 -10z m457 4 c-3 -3 -12 -4 -19 -1 -8 3 -5 6 6 6 11 1 17 -2
13 -5z m1 -59 c-3 -3 -276 -8 -370 -6 -27 1 -48 5 -48 10 0 5 78 9 173 10 94
1 188 5 207 9 26 6 36 5 38 -6 2 -7 2 -15 0 -17z m-545 16 c9 0 17 -8 17 -16
0 -15 -25 -18 -145 -17 -75 0 -85 2 -85 16 0 8 5 16 10 18 9 3 160 2 203 -1z
m-63 -96 c81 -8 103 -25 35 -26 -81 -1 -144 -7 -154 -13 -16 -10 -36 34 -26
61 3 8 13 8 42 -2 21 -7 67 -16 103 -20z m806 -62 c4 -13 4 -26 1 -30 -3 -3
-42 -6 -86 -7 -62 -1 -81 2 -81 12 0 8 9 16 20 19 11 3 20 9 20 13 0 3 19 7
42 8 23 1 43 3 45 5 11 12 34 0 39 -20z m-859 -18 c32 -2 77 -5 101 -7 49 -2
57 -18 10 -19 -18 -1 -70 -2 -115 -4 -74 -3 -83 -1 -83 14 0 21 10 32 21 26 4
-3 34 -7 66 -10z m858 -85 l0 -35 -115 0 c-107 0 -136 8 -99 26 22 11 182 47
199 45 10 -1 15 -13 15 -36z m-863 -1 c64 -13 82 -26 36 -27 -18 0 -36 -1 -40
-2 -8 -2 -51 -3 -67 -1 -7 1 -8 18 -2 39 2 4 20 2 73 -9z m143 -74 c61 -4 118
-7 127 -7 10 1 20 -3 23 -9 4 -5 -51 -9 -137 -10 -79 0 -161 -3 -182 -5 -37
-3 -55 6 -56 28 0 8 45 14 85 11 17 -1 80 -5 140 -8z m656 -14 c-7 -5 -23 -6
-35 -3 -19 6 -18 7 9 12 34 7 46 3 26 -9z m49 3 c0 -2 -7 -4 -15 -4 -8 0 -15
4 -15 10 0 5 7 7 15 4 8 -4 15 -8 15 -10z m-193 -8 c4 -4 -4 -6 -19 -4 -35 5
-46 15 -14 14 14 -1 29 -5 33 -10z m37 6 c3 -5 -1 -9 -9 -9 -8 0 -12 4 -9 9 3
4 7 8 9 8 2 0 6 -4 9 -8z m151 -60 c-4 -20 -8 -38 -8 -39 -1 -1 -21 2 -44 7
-37 6 -243 5 -521 -3 -45 -1 -82 1 -82 4 0 4 13 12 29 19 30 12 85 14 216 7
55 -4 121 2 210 17 72 12 147 23 169 24 l38 2 -7 -38z m-855 -12 c21 -7 19 -8
-17 -9 -24 -1 -43 4 -43 9 0 12 24 12 60 0z m55 -18 c-3 -3 -11 0 -18 7 -9 10
-8 11 6 5 10 -3 15 -9 12 -12z m755 -32 c19 -4 28 -8 20 -9 -8 -2 -24 -4 -35
-6 -11 -2 -46 -6 -78 -9 -32 -3 -63 -8 -68 -12 -5 -3 -9 0 -9 6 0 6 -5 8 -11
4 -11 -6 -43 -6 -201 -1 -48 2 -68 16 -25 18 91 4 129 8 133 12 7 7 235 5 274
-3z m-796 -18 c2 -4 -8 -8 -22 -9 -15 0 -33 -2 -41 -4 -7 -2 -16 2 -18 9 -5
13 72 18 81 4z m811 -32 c-10 -16 -63 -41 -103 -47 -62 -10 -206 -10 -226 0
-10 5 -16 5 -13 0 5 -7 -223 -8 -475 -2 -62 1 -86 10 -55 21 35 13 218 15 302
4 33 -4 65 -8 70 -8 13 -1 124 13 150 18 11 2 65 7 120 10 54 3 100 6 102 7 1
2 32 4 68 5 42 1 64 -2 60 -8z m-120 -389 c-3 -6 -11 -8 -17 -5 -6 4 -5 9 3
15 16 10 23 4 14 -10z m-4241 -46 c20 -8 38 -15 41 -15 51 1 75 -2 75 -8 0
-10 -15 -12 -77 -13 -48 0 -83 15 -83 36 0 18 -1 18 44 0z m4248 -27 c-6 -6
-8 -16 -6 -23 3 -7 -2 -15 -10 -18 -19 -8 -20 3 -5 37 7 14 16 23 21 20 6 -4
6 -10 0 -16z"/>
<path d="M4751 3832 c-34 -5 -187 -98 -222 -134 -45 -47 -72 -161 -55 -234 10
-45 60 -151 89 -190 63 -82 148 -115 279 -109 72 4 110 8 128 15 3 1 9 2 13 1
9 -1 31 16 55 43 9 10 23 24 30 32 7 8 25 42 40 76 36 88 40 198 8 291 -25 74
-48 103 -116 147 -76 49 -176 74 -249 62z m69 -37 c0 -2 -10 -10 -22 -16 -21
-11 -22 -11 -9 4 13 16 31 23 31 12z m-60 -15 c-20 -13 -33 -13 -25 0 3 6 14
10 23 10 15 0 15 -2 2 -10z m205 -10 c3 -6 -1 -7 -9 -4 -18 7 -21 14 -7 14 6
0 13 -4 16 -10z m-75 -24 c0 -3 -4 -8 -10 -11 -5 -3 -10 -1 -10 4 0 6 5 11 10
11 6 0 10 -2 10 -4z m1 -48 c22 -6 39 -14 39 -17 0 -16 -264 -198 -285 -197
-5 1 -8 6 -6 11 2 6 6 28 8 49 14 125 120 192 244 154z m144 -48 c3 -11 3 -29
0 -40 -7 -22 -45 -48 -45 -30 0 20 -18 9 -24 -15 -4 -15 -18 -31 -34 -38 -15
-6 -29 -14 -32 -17 -3 -3 -14 -10 -25 -16 -11 -7 -60 -37 -109 -68 -73 -46
-92 -54 -103 -44 -19 20 -5 55 30 72 40 19 68 40 126 94 55 52 113 91 161 108
46 17 48 17 55 -6z m-51 -177 c-8 -66 -51 -114 -120 -133 -47 -13 -116 -9
-121 7 -2 6 22 31 54 55 32 23 60 45 63 49 3 3 12 8 20 12 8 4 33 17 55 31 22
13 43 22 47 19 4 -2 5 -20 2 -40z m-413 -31 c-11 -22 -17 -42 -14 -46 4 -3 2
-6 -4 -6 -20 0 -23 33 -6 58 35 49 38 52 41 43 2 -5 -6 -27 -17 -49z m16 -107
c0 -8 -4 -12 -9 -9 -5 3 -6 10 -3 15 9 13 12 11 12 -6z m43 -39 c-5 -13 -6
-27 -3 -30 4 -3 1 -6 -5 -6 -7 0 -12 6 -12 14 0 22 11 46 21 46 5 0 4 -11 -1
-24z m46 -56 c0 -20 -7 -25 -19 -14 -7 7 2 34 12 34 4 0 7 -9 7 -20z m74 -4
c-5 -13 -6 -27 -3 -30 4 -3 1 -6 -5 -6 -19 0 -23 18 -10 40 18 28 30 25 18 -4z
m171 -9 c-10 -9 -11 -8 -5 6 3 10 9 15 12 12 3 -3 0 -11 -7 -18z m-126 -17 c3
-5 1 -10 -4 -10 -6 0 -11 5 -11 10 0 6 2 10 4 10 3 0 8 -4 11 -10z"/>
<path d="M4755 3102 c-70 -7 -123 -33 -170 -83 -69 -74 -99 -146 -100 -242 0
-81 9 -104 74 -188 27 -35 125 -85 198 -103 65 -15 175 -13 195 3 78 64 119
113 148 176 28 62 31 77 26 129 -5 53 -34 129 -68 180 -59 88 -184 141 -303
128z m139 -76 c-6 -16 -24 -23 -24 -8 0 10 22 33 27 28 2 -2 1 -11 -3 -20z
m-151 -33 c3 -16 5 -28 4 -29 -1 -1 -15 -4 -30 -8 -26 -6 -28 -5 -22 16 16 52
40 62 48 21z m43 -8 c-9 -9 -16 -13 -16 -8 0 12 22 34 28 28 2 -2 -3 -11 -12
-20z m188 10 c-4 -8 -9 -15 -14 -15 -4 0 -12 -10 -18 -22 -6 -13 -11 -17 -11
-9 -1 8 9 25 21 38 25 27 29 29 22 8z m-103 -45 c-2 -8 -14 -69 -28 -134 -25
-124 -46 -178 -82 -210 -17 -16 -22 -16 -26 -4 -11 28 6 134 35 218 11 30 22
71 25 90 3 19 13 41 23 48 22 17 58 11 53 -8z m-105 -17 c-54 -176 -68 -241
-67 -310 1 -34 -24 -28 -56 13 -23 31 -27 46 -27 98 0 103 16 138 88 194 35
27 70 30 62 5z m170 -68 c39 -94 2 -219 -79 -266 -17 -10 -18 -8 -12 23 4 18
13 42 20 54 14 22 40 145 44 212 2 21 12 13 27 -23z m-370 -62 c-8 -15 -15
-22 -16 -15 0 17 20 55 27 49 2 -3 -2 -18 -11 -34z m399 -123 c-23 -44 -30
-31 -8 15 10 20 19 32 21 26 2 -5 -4 -24 -13 -41z m-11 -65 c-4 -8 -10 -15
-15 -15 -4 0 -6 7 -3 15 4 8 10 15 15 15 4 0 6 -7 3 -15z m-70 -49 c-3 -8 -12
-17 -20 -20 -12 -4 -12 -2 -4 14 12 23 32 27 24 6z"/>
<path d="M5130 1762 c0 -4 11 -8 24 -8 14 0 22 4 20 8 -3 4 -14 8 -25 8 -10 0
-19 -4 -19 -8z"/>
<path d="M1486 4003 c-1 -1 -123 -5 -271 -9 -149 -3 -306 -7 -350 -9 -44 -1
-101 -3 -128 -4 -26 -1 -46 -4 -46 -8 5 -30 -2 -35 -20 -19 -10 10 -22 13 -25
8 -19 -31 -26 -598 -11 -972 10 -259 10 -379 1 -505 -4 -55 -9 -271 -11 -480
-3 -209 -5 -434 -6 -500 -1 -66 1 -178 6 -250 4 -71 9 -184 10 -250 1 -66 3
-127 6 -135 7 -27 31 -39 57 -29 14 5 96 7 186 4 88 -4 171 -6 184 -6 12 1 22
-3 22 -7 0 -4 33 -7 73 -8 39 0 137 -4 217 -8 140 -7 342 -11 1345 -21 465 -4
919 -12 1087 -19 65 -2 90 -7 103 -20 22 -21 47 -17 51 9 4 23 17 297 18 368
1 44 2 48 21 42 101 -33 152 5 161 120 3 39 0 56 -13 72 -28 31 -80 54 -129
56 -42 2 -44 4 -51 37 -7 35 -7 364 0 860 4 227 9 364 23 525 13 171 17 311
17 638 -1 333 -2 370 -18 387 -9 10 -15 25 -12 32 4 8 6 7 6 -4 1 -20 20 -25
22 -5 3 23 -1 71 -7 76 -3 3 -22 6 -43 7 -21 0 -42 3 -47 6 -13 7 -637 8 -663
1 -27 -7 -27 -27 -1 -44 20 -13 18 -16 -41 -59 -46 -34 -70 -44 -93 -43 -91 7
-296 9 -331 3 -49 -9 -41 -11 55 -15 103 -4 247 -14 322 -22 35 -3 78 -7 96
-7 17 -1 32 -5 32 -9 0 -5 4 -6 9 -3 5 3 31 1 57 -4 27 -6 66 -12 86 -14 20
-2 45 -9 55 -15 16 -10 15 -11 -7 -7 -14 3 -47 7 -75 10 -27 3 -59 8 -70 10
-18 3 -122 16 -185 22 -173 17 -1087 31 -1367 21 -51 -2 -70 0 -62 8 6 6 77
11 177 12 92 2 173 3 181 3 10 0 11 3 2 14 -9 10 -30 13 -84 9 -66 -4 -71 -3
-56 12 10 10 39 17 82 20 37 2 93 11 125 20 78 23 87 25 167 30 39 2 90 7 115
10 25 4 181 7 348 7 264 1 413 10 398 25 -7 8 -300 13 -971 18 -352 3 -660 6
-683 7 -24 2 -45 2 -46 1z m-260 -118 c-59 -42 -93 -48 -51 -9 29 27 59 42 85
43 8 1 -7 -15 -34 -34z m2135 11 c-13 -14 -28 -23 -32 -20 -5 3 -9 2 -9 -3 0
-16 -67 -53 -96 -53 -48 0 -47 10 2 47 47 36 75 47 128 51 l30 3 -23 -25z m84
-2 c-16 -14 -47 -41 -68 -60 -28 -26 -43 -33 -59 -28 -21 6 -21 7 5 21 15 7
34 27 42 43 9 18 26 32 43 36 15 3 32 7 37 9 27 9 27 2 0 -21z m-2305 11 c0
-2 -9 -9 -20 -15 -12 -6 -20 -7 -20 -1 0 5 8 12 18 14 9 3 18 5 20 6 1 0 2 -1
2 -4z m465 -5 c-3 -5 -12 -10 -18 -10 -7 0 -6 4 3 10 19 12 23 12 15 0z m1870
-30 c-21 -22 -41 -37 -43 -35 -6 6 63 75 75 75 4 0 -10 -18 -32 -40z m175 20
c-14 -10 -27 -17 -29 -15 -8 8 22 35 38 35 12 0 10 -5 -9 -20z m-1876 -11
c-22 -21 -119 -42 -99 -21 18 19 69 42 95 42 l24 0 -20 -21z m159 11 c18 0
-36 -26 -66 -32 -15 -3 -27 -1 -27 3 0 13 53 39 68 34 8 -3 19 -5 25 -5z
m2027 -132 c5 -277 3 -547 -4 -658 -12 -170 -13 -180 -21 -245 -4 -33 -9 -73
-11 -90 -2 -16 -6 -122 -9 -234 -5 -231 -10 -317 -30 -496 -20 -178 -20 -510
-1 -695 2 -19 7 -69 11 -110 3 -41 8 -88 10 -105 2 -16 7 -61 10 -99 3 -38 8
-73 11 -77 2 -4 0 -10 -6 -14 -5 -3 -10 -2 -10 2 0 5 -10 19 -23 33 -13 14
-26 32 -30 40 -11 21 -27 48 -65 107 -26 41 -31 55 -23 70 9 15 30 63 36 83
27 86 36 124 40 159 2 23 7 47 11 53 4 7 3 8 -4 4 -7 -4 -12 -14 -12 -22 0 -8
-5 -14 -10 -14 -6 0 -9 -3 -8 -7 3 -16 -23 -93 -32 -93 -6 0 -9 -3 -8 -7 4
-14 -26 -103 -34 -103 -14 0 -9 38 7 54 8 8 16 23 18 33 1 10 5 23 9 28 3 6 9
33 12 60 4 28 10 61 13 75 4 19 3 22 -6 14 -7 -6 -14 -18 -15 -25 -8 -36 -67
-169 -76 -169 -20 0 -17 37 7 88 15 31 26 65 25 74 -2 9 2 36 9 60 7 24 14 54
15 68 2 14 10 57 19 95 17 73 18 79 30 185 4 36 9 72 11 80 1 8 3 34 3 58 1
23 5 42 10 42 4 0 7 -19 5 -42 -1 -24 -5 -81 -8 -128 -5 -62 -3 -80 4 -67 6 9
13 54 16 100 2 45 6 100 8 122 2 22 7 74 10 116 4 41 9 86 11 100 3 13 7 116
10 229 4 195 -1 209 -20 60 -3 -25 -8 -54 -10 -65 -2 -11 -4 -29 -4 -40 -1
-15 -4 -16 -13 -7 -9 9 -12 52 -10 150 6 283 4 347 -14 481 -6 45 -38 220 -50
271 -3 14 -7 34 -8 46 -2 11 -5 25 -8 30 -4 5 -9 25 -12 44 -3 19 -12 62 -21
94 -9 32 -13 61 -11 64 3 2 8 -7 12 -22 3 -14 10 -24 14 -21 9 5 22 -25 26
-60 1 -11 5 -31 8 -45 3 -14 9 -38 12 -55 4 -16 9 -39 10 -50 8 -55 17 -85 26
-85 9 0 4 68 -7 110 -2 8 -6 32 -10 54 -3 21 -16 69 -28 107 -20 59 -21 70 -9
83 10 10 11 19 4 33 -9 16 -1 31 50 94 71 87 121 139 129 133 4 -2 7 -63 9
-136z m-2870 112 c0 -5 -5 -10 -11 -10 -6 0 -17 -7 -26 -15 -8 -9 -18 -14 -21
-11 -5 6 38 45 51 46 4 0 7 -4 7 -10z m-334 -60 c27 -28 68 -66 91 -84 l41
-32 -19 -55 c-24 -68 -56 -183 -64 -229 -3 -19 -10 -53 -15 -75 -5 -22 -12
-60 -15 -85 -4 -25 -9 -56 -11 -70 -2 -14 -6 -47 -9 -75 -6 -49 -8 -64 -19
-114 -3 -13 -2 -21 1 -17 4 4 8 12 9 19 7 32 13 68 24 137 7 41 14 84 16 95 3
11 6 36 8 55 6 52 36 179 52 215 7 18 11 35 8 37 -2 3 12 38 32 78 33 66 41
74 89 95 28 13 72 29 96 36 51 15 44 13 89 22 19 4 46 9 60 12 14 3 41 8 60
10 19 2 53 6 75 9 22 3 67 8 100 11 33 3 71 8 85 11 14 2 33 -1 43 -8 15 -12
14 -13 -15 -14 -41 -1 -158 -13 -178 -19 -8 -2 -37 -6 -65 -10 -27 -3 -81 -13
-119 -22 -37 -8 -73 -16 -80 -17 -6 -2 -35 -10 -63 -19 -29 -9 -61 -14 -72
-12 -15 3 -26 -12 -52 -68 -18 -40 -34 -76 -35 -82 -1 -5 -9 -31 -17 -57 -9
-26 -19 -57 -21 -70 -3 -13 -7 -34 -10 -47 -3 -14 -8 -45 -11 -70 -3 -25 -7
-61 -10 -80 -5 -35 -12 -142 -20 -291 -3 -47 -8 -107 -12 -135 -15 -108 -5
-740 13 -815 12 -52 17 -170 6 -170 -5 0 -13 12 -17 28 -5 15 -10 34 -12 42
-3 8 -4 27 -4 43 l1 27 -42 -42 c-42 -42 -42 -42 -48 -18 -9 37 -2 55 31 74
24 14 33 15 45 5 12 -9 14 -9 10 2 -6 18 -14 81 -22 173 -9 98 -24 120 -19 26
2 -41 7 -86 10 -100 10 -44 14 -82 8 -76 -3 3 -18 -3 -33 -14 l-28 -20 -5 23
c-6 25 -11 396 -7 497 2 36 1 117 0 180 -4 139 -4 281 -2 335 1 22 -1 132 -4
245 -8 282 -10 538 -4 583 2 20 9 37 16 37 6 0 33 -23 60 -50z m514 10 c0 -5
-5 -10 -11 -10 -5 0 -7 5 -4 10 3 6 8 10 11 10 2 0 4 -4 4 -10z m2140 -5 c-7
-8 -17 -15 -23 -15 -6 0 -2 7 9 15 25 19 30 19 14 0z m-1716 -3 c2 -4 -16 -8
-41 -10 -26 -2 -42 1 -39 7 7 10 74 13 80 3z m1841 -12 c-3 -5 -14 -10 -23 -9
-14 0 -13 2 3 9 27 11 27 11 20 0z m-1361 -69 c8 -12 -28 -21 -44 -11 -9 6 -8
9 6 13 30 8 33 7 38 -2z m40 -3 c-3 -4 -9 -8 -15 -8 -5 0 -9 4 -9 8 0 5 7 9
15 9 8 0 12 -4 9 -9z m1373 6 c-3 -3 -12 -4 -19 -1 -8 3 -5 6 6 6 11 1 17 -2
13 -5z m-781 -49 c35 -7 127 -13 284 -19 131 -6 189 -14 209 -30 15 -12 26
-14 114 -20 59 -5 162 -47 184 -76 25 -33 67 -190 77 -293 5 -49 17 -129 23
-157 16 -71 24 -874 10 -1010 -3 -25 -8 -76 -12 -115 -4 -38 -9 -73 -11 -76
-1 -3 -6 -28 -10 -55 -9 -69 -70 -279 -90 -309 -10 -15 -27 -26 -43 -26 -14
-1 -39 -3 -56 -4 -16 -2 -40 -3 -52 -4 -12 -1 -28 -7 -36 -15 -8 -8 -23 -12
-34 -10 -11 3 -60 -2 -109 -11 -49 -9 -101 -18 -116 -20 -15 -2 -31 -6 -35 -8
-4 -3 -37 -8 -73 -12 -36 -3 -76 -8 -90 -10 -159 -20 -268 -30 -439 -40 -52
-3 -97 -8 -99 -10 -3 -3 -10 2 -16 11 -9 12 -43 16 -176 20 -205 5 -338 14
-449 28 -20 3 -63 8 -96 11 -33 3 -71 8 -85 10 -14 2 -47 6 -75 10 -27 3 -106
15 -175 26 -69 12 -129 22 -135 22 -15 3 -29 18 -72 82 -44 64 -69 132 -77
205 -5 44 -14 81 -35 150 -18 57 -23 121 -11 135 7 8 9 19 5 25 -4 6 -9 26
-12 43 -3 18 -6 33 -8 35 -1 1 3 28 9 60 14 68 13 104 -6 198 -13 60 -13 77
-1 120 7 27 15 59 18 71 3 12 9 33 14 45 5 13 7 46 4 73 -9 119 -6 203 13 355
10 77 14 107 19 155 3 28 8 57 10 65 2 8 7 29 10 45 2 17 7 41 10 55 3 14 8
41 11 60 7 42 9 44 54 59 19 6 46 21 60 34 19 17 37 22 80 22 30 0 84 4 120 8
107 12 203 17 440 22 241 5 288 8 420 31 47 7 109 14 138 14 29 0 63 5 75 12
12 6 36 14 52 18 35 7 227 4 271 -5z m1056 -1355 c-1 -30 -2 -67 -2 -82 0 -16
-5 -28 -12 -28 -9 0 -10 -3 -2 -8 6 -4 10 -18 8 -32 -1 -14 -3 -44 -3 -67 -1
-24 -4 -43 -9 -43 -6 0 -7 138 -1 160 1 5 -1 49 -5 128 -1 24 2 32 14 30 12
-3 14 -16 12 -58z m-3098 -455 c-4 -8 -1 -15 5 -15 6 0 11 -7 11 -15 0 -8 -9
-15 -19 -15 -12 0 -25 -11 -33 -27 -20 -41 -35 -39 -30 4 3 22 14 45 30 60 29
26 44 30 36 8z m-14 -123 c-33 -68 -63 -100 -56 -61 3 13 5 29 5 35 1 10 67
84 76 84 2 0 -9 -26 -25 -58z m50 34 c0 -2 -7 -9 -15 -16 -13 -11 -14 -10 -9
4 5 14 24 23 24 12z m50 -38 c0 -14 52 -130 65 -145 31 -37 35 -43 35 -49 0
-12 71 -74 113 -98 52 -30 81 -36 189 -41 101 -5 134 -10 179 -29 19 -7 59
-17 89 -20 30 -4 71 -9 90 -12 19 -2 55 -6 80 -9 72 -7 141 -14 195 -21 28 -3
68 -7 90 -9 250 -21 345 -23 490 -12 50 4 140 10 200 12 61 3 169 7 240 10
187 8 310 17 415 31 73 9 83 11 130 24 25 7 68 13 95 14 61 1 98 23 120 70 20
41 50 59 40 23 -22 -71 -74 -140 -120 -157 -30 -11 -87 -25 -150 -35 -22 -4
-44 -8 -50 -9 -5 -2 -26 -6 -45 -9 -19 -4 -48 -10 -65 -13 -16 -3 -74 -13
-127 -22 -54 -9 -98 -20 -98 -23 0 -3 48 2 108 12 59 9 166 20 237 23 72 4
150 10 175 15 25 5 48 7 53 4 16 -10 -5 -22 -51 -29 -62 -9 -69 -14 -41 -30
13 -7 20 -14 14 -14 -5 -1 -17 -3 -25 -5 -14 -4 -34 -8 -90 -20 -14 -3 -43 -7
-65 -9 -22 -3 -68 -7 -102 -11 -34 -3 -71 -8 -84 -10 -12 -2 -39 -5 -60 -7
-73 -4 -22 -19 67 -19 134 -1 286 16 372 40 17 5 32 7 32 4 0 -3 7 0 15 7 8 7
15 9 15 6 0 -4 6 -4 13 1 24 15 47 12 57 -7 20 -37 5 -43 -125 -55 -33 -3 -73
-8 -90 -11 -72 -11 -146 -15 -410 -21 -348 -8 -381 -8 -427 0 -29 5 -36 4 -32
-7 8 -22 45 -32 111 -32 35 1 63 -2 63 -6 0 -4 7 -5 16 -1 14 5 15 3 4 -18
-16 -31 -76 -88 -145 -139 -47 -35 -60 -40 -93 -35 -22 2 -86 7 -142 10 -57 3
-106 7 -110 10 -3 2 23 36 59 76 36 39 89 97 117 127 l52 56 159 2 c187 2 276
10 335 28 39 13 30 14 -107 10 -82 -3 -173 -6 -202 -7 -28 -2 -51 0 -51 3 0 3
0 14 -1 25 -1 17 -3 18 -11 5 -5 -8 -10 -10 -10 -4 0 9 -48 12 -57 4 -2 -1 -7
-4 -13 -5 -5 -1 -11 -3 -12 -5 -17 -13 -274 -13 -333 0 -22 5 -45 -1 -45 -11
0 -5 4 -8 9 -5 5 3 14 0 20 -7 9 -11 -5 -13 -75 -11 -59 1 -84 -2 -81 -10 2
-6 14 -12 26 -12 45 -2 46 0 -142 -181 -50 -48 -71 -62 -91 -61 -32 3 -33 11
-3 31 24 16 72 59 74 67 9 28 17 40 28 40 8 0 23 14 35 30 27 37 14 38 -30 3
-54 -44 -90 -85 -90 -101 0 -9 -3 -12 -7 -8 -4 3 -20 -7 -37 -22 -35 -33 -66
-47 -66 -30 0 6 33 45 74 87 80 81 116 122 116 128 0 2 -10 1 -22 -3 -25 -8
-70 -51 -118 -114 -19 -25 -45 -53 -57 -63 -13 -10 -29 -24 -36 -31 -6 -6 -30
-10 -52 -9 -54 3 -208 5 -220 2 -5 -1 -14 0 -20 1 -5 1 -22 2 -37 2 -33 -1
-33 -1 -7 29 11 13 29 35 41 48 32 37 108 158 108 172 0 21 -58 -41 -133 -144
-68 -93 -100 -118 -127 -102 -8 5 -7 12 2 23 8 10 20 29 27 43 27 54 116 147
148 155 13 4 22 11 20 18 -2 7 -34 11 -90 10 -48 -1 -87 2 -87 7 0 5 14 18 30
28 l31 18 -28 11 c-15 6 -59 19 -98 27 -217 50 -210 47 -199 89 6 24 10 26 43
22 51 -7 112 -16 141 -21 14 -3 54 -9 90 -15 36 -5 81 -12 101 -15 19 -3 55
-7 80 -10 24 -2 44 -4 44 -5 0 -1 14 -4 30 -5 17 -2 53 -6 80 -9 57 -7 103
-12 195 -22 99 -10 129 -12 210 -18 41 -3 100 -8 130 -12 30 -3 53 -3 50 -1
-7 7 -108 21 -235 32 -33 2 -70 7 -82 9 -24 5 -124 16 -193 21 -25 2 -56 6
-70 8 -14 3 -47 8 -75 12 -95 12 -120 16 -135 20 -8 2 -31 7 -50 10 -19 3 -42
8 -50 10 -8 2 -37 7 -65 11 -27 3 -53 8 -58 11 -4 2 -20 7 -35 9 -15 3 -62 14
-106 25 -43 11 -81 18 -83 15 -14 -14 -107 146 -137 234 -18 51 -22 135 -6
125 6 -3 10 -11 10 -17z m-60 -32 c0 -13 -12 -35 -26 -50 -20 -19 -27 -36 -27
-66 0 -22 -3 -43 -7 -45 -5 -3 -7 3 -5 12 1 10 -4 26 -12 35 -13 14 -13 21 2
52 10 20 21 36 26 36 5 0 9 6 9 13 0 14 20 37 32 37 4 0 8 -11 8 -24z m23 -55
c3 -14 1 -18 -9 -14 -9 3 -18 -6 -25 -26 -6 -17 -15 -29 -20 -26 -9 6 -2 28
21 63 18 27 26 28 33 3z m17 -49 c0 -4 -13 -20 -30 -35 -34 -33 -40 -22 -9 17
20 25 39 34 39 18z m27 -49 c2 -6 -5 -13 -17 -16 -12 -3 -20 0 -20 7 0 26 29
33 37 9z m-61 -70 c-8 -15 -15 -22 -16 -15 0 17 20 55 27 49 2 -3 -2 -18 -11
-34z m84 21 c0 -20 -27 -47 -35 -34 -6 10 15 50 27 50 5 0 8 -7 8 -16z m23
-99 c-35 -27 -42 -18 -16 21 14 22 17 24 26 9 6 -12 4 -20 -10 -30z m-91 -7
c-6 -6 -7 0 -4 19 5 21 7 23 10 9 2 -10 0 -22 -6 -28z m123 -7 c-3 -6 -11 -11
-16 -11 -5 0 -4 6 3 14 14 16 24 13 13 -3z m2265 5 c-8 -7 -110 -14 -105 -7 2
4 28 8 57 10 29 1 50 0 48 -3z m-2350 -34 c0 -11 -11 -31 -24 -46 l-23 -28 -6
23 c-6 22 10 66 20 56 2 -3 -1 -16 -8 -29 -11 -21 -11 -22 4 -10 9 8 19 22 22
33 8 24 15 24 15 1z m92 -4 c-7 -7 -12 -8 -12 -2 0 14 12 26 19 19 2 -3 -1
-11 -7 -17z m3151 -9 c59 -27 51 -87 -16 -122 -57 -29 -84 -18 -93 38 -8 54
-2 73 28 85 31 12 53 12 81 -1z m-3241 -59 c-9 -16 -21 -30 -25 -30 -9 0 -1
17 21 43 22 25 23 21 4 -13z m-91 -33 c-8 -8 -11 -7 -11 4 0 20 13 34 18 19 3
-7 -1 -17 -7 -23z m129 23 c0 -5 -5 -10 -11 -10 -5 0 -7 5 -4 10 3 6 8 10 11
10 2 0 4 -4 4 -10z m133 -56 c9 -4 17 -10 17 -15 0 -17 -49 -41 -70 -34 -20 6
-20 7 -3 36 10 16 22 27 28 24 5 -3 18 -8 28 -11z m141 -38 c11 -1 21 -7 23
-13 6 -17 -31 -25 -62 -13 -14 5 -31 8 -36 4 -17 -10 -48 6 -42 22 5 13 15 14
52 9 25 -4 55 -8 65 -9z m106 -22 c0 -11 -30 -24 -57 -24 -20 0 -15 28 5 33
30 7 52 3 52 -9z m-300 -31 c0 -9 -93 -147 -103 -151 -4 -2 -5 -8 -1 -13 3 -5
-2 -12 -10 -15 -9 -3 -14 -9 -12 -13 8 -12 -43 -66 -53 -56 -7 7 4 32 31 74
22 36 54 91 70 123 23 47 33 58 53 58 14 0 25 -3 25 -7z m80 -10 c0 -2 -20
-33 -45 -69 -25 -35 -45 -66 -45 -69 0 -8 -20 -32 -54 -65 -24 -24 -36 -28
-64 -21 -2 1 14 22 35 48 21 26 41 52 46 58 4 5 19 24 32 40 14 17 25 33 25
36 0 17 42 57 55 52 8 -3 15 -7 15 -10z m80 -14 c0 -5 -22 -40 -49 -77 -27
-37 -48 -69 -46 -71 5 -5 37 28 70 74 44 60 56 70 86 70 23 1 26 -2 18 -17 -5
-9 -14 -20 -19 -23 -6 -3 -10 -14 -10 -24 0 -10 -12 -28 -26 -42 -14 -13 -35
-42 -46 -64 -12 -22 -24 -42 -29 -45 -7 -5 -115 -5 -153 -1 -5 1 0 11 12 24
12 13 22 28 22 34 0 6 4 13 8 15 5 2 26 30 46 63 52 82 73 104 97 98 10 -3 19
-9 19 -14z m1290 3 c0 -4 -17 -18 -37 -32 -20 -14 -80 -69 -134 -122 -73 -75
-103 -98 -123 -98 -14 0 -26 5 -26 10 0 6 4 10 9 10 6 0 56 46 112 102 76 76
98 104 86 106 -26 5 -101 -57 -167 -139 -52 -64 -79 -89 -96 -89 -10 0 8 25
44 63 33 34 82 85 109 113 58 61 76 72 126 72 21 0 40 2 42 4 7 7 55 8 55 0z
m-1127 -8 c13 -4 9 -12 -15 -37 -17 -18 -53 -63 -80 -102 -51 -72 -72 -92 -82
-76 -7 10 25 71 37 71 4 0 7 7 7 15 0 8 4 15 8 15 5 0 24 24 42 53 43 67 52
73 83 61z m92 -12 c-20 -14 -113 -127 -138 -168 -30 -49 -61 -57 -45 -12 6 15
14 28 19 28 5 0 9 6 9 13 0 7 18 35 41 62 22 27 45 57 50 67 6 12 21 18 42 18
18 0 27 -4 22 -8z m809 -14 c-10 -11 -57 -57 -103 -102 -46 -45 -91 -88 -99
-97 -13 -15 -52 -15 -52 -1 0 7 53 52 62 52 4 0 32 31 62 68 50 63 100 101
135 102 11 0 9 -5 -5 -22z m1589 -18 c3 -11 1 -18 -4 -14 -5 3 -9 12 -9 20 0
20 7 17 13 -6z m-177 -28 c-8 -9 -19 -13 -22 -9 -10 9 16 38 28 31 6 -4 4 -13
-6 -22z m38 -54 c-27 -35 -54 -70 -61 -78 -7 -8 -21 -26 -32 -40 -10 -14 -23
-22 -27 -18 -6 7 50 78 116 149 8 8 22 25 29 37 8 12 17 19 20 17 2 -3 -18
-33 -45 -67z m-300 38 c-3 -9 -11 -16 -16 -16 -10 0 -47 -40 -48 -52 0 -4 -25
-32 -55 -63 -30 -32 -55 -61 -55 -66 0 -5 -14 -9 -31 -9 l-31 0 45 48 c81 86
108 117 125 144 9 16 26 28 41 30 33 4 33 4 25 -16z m114 15 c6 -2 -172 -177
-197 -193 -44 -30 -45 -20 -2 28 23 26 41 50 41 54 0 4 24 33 54 64 52 54 61
58 104 47z m72 2 c0 -5 -15 -24 -33 -44 -17 -20 -59 -66 -91 -103 -33 -37 -65
-65 -71 -62 -7 2 -18 -1 -24 -7 -6 -6 -11 -7 -11 -3 0 5 8 16 18 25 11 9 34
30 53 46 19 17 45 48 58 69 33 54 63 84 84 85 9 1 17 -2 17 -6z m-646 -26
c-45 -51 -177 -177 -187 -178 -45 -5 -48 2 -11 27 36 25 82 69 144 141 14 16
36 29 49 30 23 2 23 2 5 -20z m79 -20 c-41 -45 -150 -148 -173 -164 -17 -12
-20 -12 -20 0 0 17 41 70 115 148 44 48 57 56 79 52 l27 -6 -28 -30z m94 -11
c-20 -20 -39 -36 -44 -36 -4 0 -24 -19 -43 -42 -44 -53 -65 -71 -84 -74 -13
-2 -14 2 -4 19 6 12 16 27 22 33 6 7 21 25 33 41 48 62 90 101 113 105 42 7
44 -8 7 -46z m203 48 c0 -1 -12 -15 -27 -32 -16 -16 -57 -61 -91 -100 -58 -63
-92 -88 -106 -75 -4 5 10 23 67 87 75 83 121 124 138 123 11 -1 19 -2 19 -3z
m-93 -10 c-79 -85 -195 -199 -204 -200 -19 -3 -16 14 7 34 55 49 67 61 85 86
33 46 77 85 96 83 10 -1 17 -2 16 -3z m669 -51 c-4 -4 -11 -1 -16 7 -16 25
-11 35 7 17 9 -9 13 -20 9 -24z"/>
<path d="M3820 3233 c5 -21 11 -54 14 -73 3 -19 8 -46 11 -60 8 -39 18 -177
19 -257 1 -77 8 -89 12 -20 5 70 5 220 0 247 -3 22 -12 74 -21 135 -2 11 -4
21 -5 23 -3 3 -7 19 -9 32 0 6 -7 10 -15 10 -11 0 -12 -8 -6 -37z"/>
<path d="M2933 3027 c-3 -5 2 -16 10 -25 11 -14 14 -54 14 -199 0 -101 -2
-181 -6 -179 -3 2 -5 85 -5 184 l1 180 -24 11 c-13 6 -28 11 -33 11 -16 0 -11
-40 5 -46 13 -5 15 -37 15 -200 0 -164 -2 -196 -15 -200 -8 -4 -15 -14 -15
-24 0 -10 7 -20 15 -24 12 -4 15 -25 15 -96 0 -81 2 -90 18 -90 17 0 19 10 18
110 0 104 -3 115 -28 111 -10 -1 -10 13 -2 22 4 3 14 -1 23 -10 24 -25 25
-230 1 -243 -10 -5 -20 -7 -24 -5 -3 3 -2 -1 4 -7 14 -17 12 -31 -2 -21 -25
15 -38 11 -38 -12 0 -29 9 -32 98 -29 39 2 72 0 72 -4 0 -4 -15 -17 -33 -30
-17 -12 -61 -44 -97 -71 -74 -54 -169 -111 -220 -131 -64 -24 -138 -73 -149
-97 -17 -38 -13 -45 17 -29 20 10 47 12 102 8 41 -4 103 -7 137 -7 l61 0 84
86 c106 109 109 114 113 151 5 38 24 99 36 114 8 10 189 17 189 8 0 -9 -236
-241 -290 -286 -72 -60 -141 -100 -220 -127 -71 -25 -206 -58 -270 -67 -23 -3
-49 -7 -58 -9 -9 -2 -30 -4 -47 -5 -54 -1 -1 -21 68 -24 77 -4 137 5 267 39
36 10 95 19 132 20 37 1 74 8 83 15 9 7 18 11 20 8 9 -9 -120 -68 -262 -119
-51 -18 -90 -35 -88 -37 4 -4 125 14 157 24 14 4 16 1 11 -13 -6 -16 -5 -16
10 -4 9 7 17 11 17 8 0 -4 42 14 92 39 70 33 100 43 121 38 40 -9 104 33 208
136 91 90 128 149 129 207 0 17 4 34 9 37 5 3 14 19 19 35 10 27 9 29 -10 26
-11 -3 -21 -6 -22 -7 -5 -8 -94 -116 -113 -138 -32 -35 -39 -18 -15 33 18 37
112 171 132 187 3 3 21 27 38 54 l33 48 -37 -22 c-24 -15 -38 -19 -43 -12 -3
6 -6 91 -5 189 1 175 0 179 -20 179 -20 -1 -20 5 -22 144 -2 161 -1 150 -14
170 -7 12 -44 16 -186 20 -97 3 -178 1 -181 -3z m241 -123 c13 -5 16 -26 16
-129 l0 -123 37 9 c36 7 62 4 32 -5 -42 -12 -99 -25 -135 -31 l-40 -6 -2 128
c0 70 1 136 4 146 5 17 55 24 88 11z m-214 -304 c0 -5 -10 -10 -22 -10 -19 0
-20 2 -8 10 19 13 30 13 30 0z m270 -135 c0 -40 -3 -45 -22 -46 -13 0 -39 -2
-58 -3 -47 -3 -70 10 -70 39 0 14 -1 25 -3 25 -1 0 -18 -4 -36 -10 -22 -6 -31
-6 -25 0 12 12 127 38 177 39 l37 1 0 -45z m-150 -179 c14 -2 -12 -4 -57 -5
-46 0 -83 2 -83 7 0 6 81 6 140 -2z m160 0 c14 -2 -10 -4 -52 -5 -43 0 -78 2
-78 7 0 6 70 6 130 -2z m100 -2 c0 -2 -16 -4 -35 -4 -19 0 -35 4 -35 8 0 4 16
6 35 4 19 -2 35 -6 35 -8z"/>
<path d="M3095 2890 c-9 -14 3 -27 30 -32 18 -3 20 -11 20 -103 0 -55 3 -101
8 -102 25 -9 27 3 25 120 l-3 122 -37 3 c-20 2 -39 -2 -43 -8z"/>
<path d="M3140 2493 c-14 -3 -31 -9 -37 -15 -22 -18 -4 -27 32 -17 40 11 57 5
48 -16 -3 -10 2 -15 16 -15 17 0 21 6 21 35 0 32 -2 35 -27 34 -16 -1 -39 -4
-53 -6z"/>
<path d="M1363 3012 c10 -10 17 -23 17 -28 0 -5 -4 -4 -8 3 -4 6 -20 15 -35
18 -24 6 -27 4 -27 -18 0 -14 6 -27 14 -30 11 -5 14 -39 13 -185 -2 -166 -1
-178 16 -174 9 2 17 8 17 13 0 5 6 9 13 9 6 -1 1 -10 -12 -21 -23 -18 -23 -20
-6 -33 12 -9 18 -28 20 -64 1 -29 -1 -52 -4 -52 -4 0 -8 20 -8 45 -2 64 -2 67
-12 61 -5 -4 -11 -1 -13 6 -2 6 -12 9 -21 5 -20 -8 -23 -47 -3 -47 11 0 13
-20 12 -96 -1 -94 -1 -95 22 -91 32 6 27 -6 -13 -27 -31 -17 -49 -54 -27 -57
9 -1 409 -1 445 0 39 1 37 31 -3 31 -16 0 -30 3 -30 8 0 4 18 6 40 4 31 -3 40
-1 40 11 0 8 -6 17 -12 19 -10 4 -13 84 -13 337 0 307 1 334 17 345 10 7 15
16 11 19 -3 4 -110 7 -236 7 -222 0 -230 -1 -214 -18z m24 -62 c1 -11 -2 -20
-5 -20 -4 0 -8 9 -9 20 -1 11 2 20 5 20 4 0 8 -9 9 -20z m271 -58 c2 -12 -1
-22 -6 -22 -6 0 -8 10 -5 21 5 19 3 21 -18 16 -13 -3 -43 -9 -66 -13 -28 -4
-43 -12 -43 -21 0 -11 9 -13 45 -7 l45 6 1 -88 c0 -49 0 -147 0 -217 l1 -128
31 6 c78 13 87 13 87 4 0 -5 -3 -9 -7 -10 -36 -3 -86 -11 -126 -19 -95 -20
-87 -41 -87 225 l0 235 -27 -6 c-16 -3 -34 -8 -42 -10 -11 -3 -11 -1 -2 10 6
7 21 14 34 15 12 0 51 7 87 15 82 17 94 16 98 -12z m-272 -42 c0 -33 -2 -60
-5 -60 -3 0 -7 27 -8 60 -1 33 2 60 5 60 4 0 7 -27 8 -60z m274 -192 c0 -111
-3 -199 -6 -195 -9 8 -10 397 -1 397 4 0 7 -91 7 -202z m-274 97 c1 -14 -2
-25 -6 -25 -6 0 -7 36 -1 48 4 7 6 -1 7 -23z m1 -85 c1 -11 -2 -20 -5 -20 -4
0 -8 9 -9 20 -1 11 2 20 5 20 4 0 8 -9 9 -20z m-3 -276 c-3 -49 -10 -52 -12
-4 -1 22 2 40 6 40 4 0 7 -16 6 -36z m6 -106 c0 -5 -9 -8 -19 -8 -11 0 -22 3
-24 8 -3 4 6 7 19 7 13 0 24 -3 24 -7z m25 2 c3 -5 1 -10 -4 -10 -6 0 -11 5
-11 10 0 6 2 10 4 10 3 0 8 -4 11 -10z m115 -4 c8 -2 -11 -4 -42 -5 -32 0 -58
2 -58 7 0 7 64 6 100 -2z m70 -2 c0 -2 -11 -4 -25 -4 -14 0 -25 4 -25 9 0 4
11 6 25 3 14 -2 25 -6 25 -8z m40 0 c0 -2 -7 -4 -15 -4 -8 0 -15 4 -15 10 0 5
7 7 15 4 8 -4 15 -8 15 -10z m40 0 c0 -2 -7 -4 -15 -4 -8 0 -15 4 -15 10 0 5
7 7 15 4 8 -4 15 -8 15 -10z m40 0 c0 -2 -7 -4 -15 -4 -8 0 -15 4 -15 10 0 5
7 7 15 4 8 -4 15 -8 15 -10z"/>
<path d="M1880 3014 c0 -8 4 -13 9 -10 17 11 21 -28 21 -220 0 -166 -2 -194
-15 -194 -8 0 -15 -5 -15 -10 0 -6 7 -13 15 -16 12 -5 15 -28 15 -120 0 -96
-3 -114 -17 -123 -14 -8 -15 -12 -4 -25 11 -14 11 -16 -3 -16 -9 0 -16 8 -16
18 0 13 -2 14 -9 4 -4 -8 -12 -13 -17 -13 -5 1 -9 -9 -9 -21 0 -22 3 -23 102
-23 91 0 103 2 103 18 0 14 -10 17 -65 17 -36 0 -65 3 -65 8 0 4 34 6 75 4 61
-3 75 -1 75 11 0 9 -6 17 -12 19 -9 3 -13 29 -14 81 0 72 6 93 13 44 5 -38 25
-77 38 -77 25 0 25 32 0 94 -14 34 -25 68 -25 74 0 7 -6 12 -14 12 -7 0 -14
10 -14 23 0 12 -17 60 -36 107 -20 46 -35 96 -35 110 1 20 2 21 6 5 5 -21 92
-240 124 -312 10 -24 19 -47 19 -53 0 -23 17 -7 29 28 13 35 33 84 59 142 8
20 11 -5 11 -119 1 -123 -2 -147 -16 -163 -15 -17 -15 -20 -3 -28 13 -8 12
-10 -2 -10 -9 0 -18 5 -20 11 -2 5 -11 7 -21 4 -22 -9 -22 -45 1 -46 143 -6
187 -3 190 14 3 13 -4 17 -32 17 -20 0 -36 4 -36 8 0 4 16 6 35 4 19 -2 42 -1
52 2 15 6 14 8 -3 24 -18 17 -19 36 -19 344 0 306 2 328 19 347 l19 21 -96 0
c-60 0 -97 -4 -97 -10 0 -6 7 -13 15 -16 24 -10 18 -47 -26 -155 -28 -71 -37
-105 -30 -112 6 -6 10 -27 10 -46 -1 -22 -3 -28 -6 -16 -3 11 -28 74 -55 140
-55 133 -64 173 -42 182 8 3 14 11 14 19 0 11 -20 14 -90 14 -75 0 -90 -3 -90
-16z m170 -489 c0 -8 -4 -15 -10 -15 -5 0 -10 7 -10 15 0 8 5 15 10 15 6 0 10
-7 10 -15z m210 -241 c0 -2 -11 -4 -25 -4 -14 0 -25 4 -25 9 0 4 11 6 25 3 14
-2 25 -6 25 -8z"/>
<path d="M2430 3024 c0 -4 7 -12 15 -18 13 -9 16 -36 16 -141 0 -278 0 -275
-16 -275 -9 0 -15 -9 -15 -22 0 -18 -2 -20 -10 -8 -7 12 -12 12 -21 3 -19 -19
-19 -41 0 -46 14 -3 17 -18 16 -101 0 -53 2 -96 5 -96 27 1 32 22 28 133 -1
64 0 113 4 109 7 -8 10 -63 9 -169 -1 -58 -4 -73 -16 -73 -8 0 -15 -7 -15 -16
0 -11 6 -15 20 -11 11 3 20 1 20 -4 0 -5 -11 -9 -25 -9 -14 0 -25 5 -25 10 0
6 -6 10 -14 10 -16 0 -28 -50 -12 -51 6 0 98 -1 205 -1 187 0 194 0 215 22
l21 22 -22 -7 c-13 -3 -23 -3 -23 2 0 5 10 9 22 10 50 4 51 8 52 360 1 312 0
329 -18 351 -19 21 -25 22 -218 22 -109 0 -198 -3 -198 -6z m294 -110 c12 -5
16 -20 16 -62 0 -67 -11 -63 -14 5 0 26 -5 48 -11 48 -53 -2 -115 -19 -115
-32 0 -11 9 -13 45 -7 l45 6 0 -220 c0 -122 4 -223 9 -226 15 -10 28 17 26 57
-1 20 2 37 6 37 12 0 4 -91 -9 -99 -10 -6 -55 -6 -119 -2 -10 1 -13 54 -13
230 l0 230 -27 -5 c-16 -2 -35 -7 -43 -10 -12 -4 -12 -3 -3 7 7 7 52 20 100
29 48 10 89 18 90 19 1 0 8 -2 17 -5z m13 -144 c1 -11 -2 -20 -5 -20 -4 0 -8
9 -9 20 -1 11 2 20 5 20 4 0 8 -9 9 -20z m1 -55 c0 -14 -4 -25 -7 -25 -4 0 -7
11 -7 25 0 14 3 25 7 25 3 0 7 -11 7 -25z m-1 -80 c0 -25 -3 -45 -6 -45 -4 0
-7 20 -7 45 0 25 3 45 7 45 3 0 6 -20 6 -45z m1 -80 c0 -14 -4 -25 -7 -25 -4
0 -7 11 -7 25 0 14 3 25 7 25 3 0 7 -11 7 -25z m-243 -265 c3 -5 1 -10 -4 -10
-6 0 -11 5 -11 10 0 6 2 10 4 10 3 0 8 -4 11 -10z m115 -4 c8 -2 -11 -4 -42
-5 -32 0 -58 2 -58 7 0 7 64 6 100 -2z m150 0 c14 -2 -10 -4 -52 -5 -43 0 -78
2 -78 7 0 6 70 6 130 -2z"/>
<path d="M1839 3008 c-9 -17 -3 -48 7 -48 17 0 16 15 17 -202 0 -168 1 -175
19 -165 16 11 18 28 18 201 -1 166 -3 191 -18 202 -15 12 -40 18 -43 12z"/>
<path d="M2143 3003 c-19 -7 -16 -26 6 -45 22 -19 20 -35 -18 -122 -13 -28
-18 -53 -13 -58 11 -11 85 174 80 199 -2 10 -10 17 -16 16 -7 -2 -12 2 -12 7
0 11 -7 12 -27 3z"/>
<path d="M2389 3000 c-1 -5 -2 -16 -3 -22 -1 -7 5 -16 14 -19 13 -5 15 -34 16
-180 0 -155 2 -174 17 -177 16 -3 17 14 17 198 0 122 -4 199 -9 195 -5 -3 -12
-1 -16 5 -8 13 -35 13 -36 0z"/>
<path d="M1842 2558 c-17 -17 -15 -35 6 -40 15 -4 17 -16 15 -96 -2 -86 -1
-92 18 -92 19 0 20 6 17 113 -2 83 -6 111 -15 110 -7 -2 -13 2 -13 7 0 14 -13
13 -28 -2z"/>
<path d="M2180 2533 c-7 -16 -14 -67 -15 -115 -2 -79 0 -88 16 -88 17 0 18 11
18 115 0 63 -1 115 -3 115 -1 0 -9 -12 -16 -27z"/>
<path d="M3379 1917 c-30 -29 -77 -78 -105 -107 -28 -30 -66 -68 -83 -83 -17
-15 -29 -32 -26 -36 8 -14 66 -6 107 13 20 10 41 15 46 12 4 -3 32 17 60 43
l51 48 5 81 c2 45 3 82 1 82 -1 0 -27 -24 -56 -53z"/>
<path d="M2969 1216 c-5 -5 -160 -19 -217 -19 -24 0 -38 -3 -32 -7 13 -8 245
2 245 10 0 1 15 3 33 5 19 2 36 6 40 9 6 7 -62 8 -69 2z"/>
<path d="M2535 1058 c-5 -5 -53 -50 -105 -99 -80 -76 -90 -89 -66 -85 42 8 88
47 141 121 43 60 56 88 30 63z"/>
<path d="M1110 1190 c0 -5 5 -10 11 -10 5 0 7 5 4 10 -3 6 -8 10 -11 10 -2 0
-4 -4 -4 -10z"/>
<path d="M4045 2088 c-33 -16 -59 -59 -59 -100 1 -72 77 -117 142 -84 47 24
55 47 36 98 -30 78 -72 108 -119 86z m61 -75 l25 -27 -24 -24 c-20 -19 -31
-23 -55 -17 -33 7 -36 25 -11 73 16 29 34 28 65 -5z"/>
</g>
</svg>
